<svg width="393" height="132" viewBox="0 0 393 132" fill="none" xmlns="http://www.w3.org/2000/svg">
<path d="M123.98 48.0987H144.958C145.457 48.0987 145.889 48.2803 146.252 48.6436C146.615 49.0068 146.797 49.4382 146.797 49.9377V59.5412C146.797 60.0407 146.615 60.472 146.252 60.8353C145.889 61.1985 145.457 61.3802 144.958 61.3802H109.473C108.973 61.3802 108.542 61.1985 108.178 60.8353C107.815 60.472 107.634 60.0407 107.634 59.5412V15.5421C107.634 15.0426 107.815 14.6113 108.178 14.248C108.542 13.8848 108.973 13.7031 109.473 13.7031H144.413C144.912 13.7031 145.344 13.8848 145.707 14.248C146.07 14.6113 146.252 15.0426 146.252 15.5421V25.1456C146.252 25.6451 146.07 26.0764 145.707 26.4397C145.344 26.8029 144.912 26.9846 144.413 26.9846H123.98V31.2755H142.915C143.414 31.2755 143.845 31.4571 144.209 31.8204C144.572 32.1836 144.754 32.615 144.754 33.1145V41.9688C144.754 42.4683 144.572 42.8996 144.209 43.2629C143.845 43.6261 143.414 43.8078 142.915 43.8078H123.98V48.0987Z" fill="#EE046C"/>
<path d="M153.063 28.6868C153.063 24.0553 154.981 20.2866 158.818 17.3805C162.655 14.4745 167.695 13.0215 173.939 13.0215C180.182 13.0215 185.29 14.5426 189.263 17.5849C193.237 20.6271 195.223 23.8056 195.223 27.1203C195.223 27.5289 195.076 27.8808 194.78 28.176C194.485 28.4711 194.156 28.6187 193.793 28.6187H180.171C179.126 28.6187 178.173 28.2327 177.31 27.4608C176.447 26.6889 175.29 26.3029 173.837 26.3029C171.657 26.3029 170.567 26.9386 170.567 28.21C170.567 28.8911 171.101 29.4587 172.168 29.9128C173.235 30.3669 175.221 30.7755 178.128 31.1388C184.893 32.0015 189.718 33.5794 192.601 35.8724C195.484 38.1654 196.926 41.6391 196.926 46.2932C196.926 50.9474 194.803 54.7389 190.558 57.6676C186.312 60.5963 180.761 62.0607 173.905 62.0607C167.048 62.0607 161.668 60.6531 157.763 57.8379C153.858 55.0227 151.905 51.5945 151.905 47.5533C151.905 47.1446 152.053 46.7927 152.348 46.4976C152.643 46.2024 152.995 46.0549 153.404 46.0549H166.344C167.298 46.0549 168.354 46.5089 169.512 47.4171C170.669 48.3252 172.27 48.7793 174.313 48.7793C177.719 48.7793 179.422 48.1436 179.422 46.8722C179.422 46.0549 178.809 45.4305 177.583 44.9991C176.357 44.5678 174.041 44.1251 170.635 43.671C158.921 42.1272 153.063 37.1324 153.063 28.6868Z" fill="#EE046C"/>
<path d="M248.008 59.1325C248.145 59.3595 248.213 59.6433 248.213 59.9839C248.213 60.3244 248.065 60.6423 247.77 60.9374C247.475 61.2326 247.123 61.3801 246.714 61.3801H231.185C229.868 61.3801 228.938 60.858 228.393 59.8136L220.083 44.9656V59.5412C220.083 60.0406 219.902 60.472 219.538 60.8353C219.175 61.1985 218.744 61.3801 218.244 61.3801H205.235C204.736 61.3801 204.304 61.1985 203.941 60.8353C203.578 60.472 203.396 60.0406 203.396 59.5412V15.5421C203.396 15.0426 203.578 14.6113 203.941 14.248C204.304 13.8848 204.736 13.7031 205.235 13.7031H218.244C218.744 13.7031 219.175 13.8848 219.538 14.248C219.902 14.6113 220.083 15.0426 220.083 15.5421V29.0279L227.78 15.2015C228.279 14.2026 229.187 13.7031 230.504 13.7031H245.556C245.965 13.7031 246.317 13.8507 246.612 14.1458C246.907 14.441 247.055 14.7588 247.055 15.0994C247.055 15.4399 246.987 15.7237 246.851 15.9508L234.591 36.52L248.008 59.1325Z" fill="#EE046C"/>
<path d="M254.785 18.0616C254.785 18.0616 255.824 17.2216 257.901 15.5416C259.979 13.8615 264.446 13.0215 271.302 13.0215C278.158 13.0215 283.664 14.7129 287.819 18.0957C291.973 21.4785 294.051 26.2348 294.051 32.3647V42.9899C294.051 49.2106 291.996 53.9443 287.887 57.1908C283.778 60.4374 278.249 62.0607 271.302 62.0607C264.355 62.0607 258.827 60.4374 254.717 57.1908C250.608 53.9443 248.553 49.2106 248.553 42.9899V32.3647C248.553 26.1894 250.631 21.4217 254.785 18.0616ZM267.624 47.4171C267.624 47.4171 267.851 47.6441 268.305 48.0981C268.759 48.5522 269.758 48.7793 271.302 48.7793C272.846 48.7793 274.072 48.3252 274.98 47.4171C275.888 46.5089 276.342 45.124 276.342 43.2623V31.8199C276.342 30.0036 275.888 28.63 274.98 27.6992C274.072 26.7683 272.846 26.3029 271.302 26.3029C269.758 26.3029 268.532 26.7683 267.624 27.6992C266.716 28.63 266.262 30.0036 266.262 31.8199V43.2623C266.262 45.124 266.716 46.5089 267.624 47.4171Z" fill="#EE046C"/>
<path d="M345.406 59.1325C345.542 59.4049 345.61 59.7001 345.61 60.0179C345.61 60.3358 345.462 60.6423 345.167 60.9374C344.872 61.2326 344.52 61.3801 344.112 61.3801H330.149C328.741 61.3801 327.765 60.7671 327.22 59.5412L321.363 46.5322H318.57V59.5412C318.57 60.0406 318.389 60.472 318.025 60.8353C317.662 61.1985 317.231 61.3801 316.731 61.3801H303.382C302.882 61.3801 302.451 61.1985 302.088 60.8353C301.724 60.472 301.543 60.0406 301.543 59.5412V15.5421C301.543 15.0426 301.724 14.6113 302.088 14.248C302.451 13.8848 302.882 13.7031 303.382 13.7031H323.542C330.081 13.7031 335.189 15.1675 338.867 18.0962C342.545 21.025 344.384 25.2251 344.384 30.6966C344.384 36.1681 341.932 40.4704 337.028 43.6034L345.406 59.1325ZM318.57 26.3716V33.5912H323.542C324.541 33.5912 325.313 33.262 325.858 32.6036C326.403 31.9452 326.675 31.1166 326.675 30.1176C326.675 29.1187 326.414 28.2446 325.892 27.4954C325.37 26.7462 324.587 26.3716 323.542 26.3716L318.57 26.3716Z" fill="#EE046C"/>
<path d="M350.514 13.7031H390.427C390.926 13.7031 391.357 13.8848 391.721 14.248C392.084 14.6113 392.265 15.0426 392.265 15.5421V26.5078C392.265 27.0073 392.084 27.4386 391.721 27.8019C391.357 28.1651 390.926 28.3468 390.427 28.3468H379.12V59.5412C379.12 60.0406 378.939 60.472 378.575 60.8353C378.212 61.1985 377.781 61.3801 377.281 61.3801H363.659C363.16 61.3801 362.728 61.1985 362.365 60.8353C362.002 60.472 361.82 60.0406 361.82 59.5412V28.3468H350.514C350.015 28.3468 349.583 28.1651 349.22 27.8019C348.857 27.4386 348.675 27.0073 348.675 26.5078V15.5421C348.675 15.0426 348.857 14.6113 349.22 14.248C349.583 13.8848 350.015 13.7031 350.514 13.7031Z" fill="#EE046C"/>
<path d="M350.514 13.7031H390.427C390.926 13.7031 391.357 13.8848 391.721 14.248C392.084 14.6113 392.265 15.0426 392.265 15.5421V26.5078C392.265 27.0073 392.084 27.4386 391.721 27.8019C391.357 28.1651 390.926 28.3468 390.427 28.3468H379.12V59.5412C379.12 60.0406 378.939 60.472 378.575 60.8353C378.212 61.1985 377.781 61.3801 377.281 61.3801H363.659C363.16 61.3801 362.728 61.1985 362.365 60.8353C362.002 60.472 361.82 60.0406 361.82 59.5412V28.3468H350.514C350.015 28.3468 349.583 28.1651 349.22 27.8019C348.857 27.4386 348.675 27.0073 348.675 26.5078V15.5421C348.675 15.0426 348.857 14.6113 349.22 14.248C349.583 13.8848 350.015 13.7031 350.514 13.7031Z" fill="#EE046C"/>
<path fill-rule="evenodd" clip-rule="evenodd" d="M16.4472 1.29201C17.0993 0.719424 17.9329 0.316168 18.8839 0.113578C19.7698 -0.0751919 21.4741 -0.0224783 22.5077 0.225822C23.365 0.431832 25.1756 1.28516 26.3036 2.01475C27.7188 2.93023 29.2295 4.51304 31.3084 7.25796C35.6613 13.0055 42.1944 18.127 46.603 19.2476C47.6105 19.5039 47.8819 19.5239 48.6287 19.3975C49.9552 19.1729 50.859 18.3665 50.887 17.3825C50.8945 17.1158 50.9639 16.9186 51.0407 16.9443C51.4361 17.0761 51.4934 18.7916 51.1292 19.5935C50.8642 20.1771 49.8611 21.2859 49.1441 21.7878L48.7423 22.0691L49.1714 22.7379C49.4073 23.1059 49.733 23.7062 49.895 24.0723C50.0981 24.5315 50.6634 25.21 51.7186 26.2613C54.5978 29.1296 55.7769 31.58 55.772 34.6848C55.7687 36.9555 55.3741 38.1452 53.7027 40.9253C52.424 43.0523 52.0919 44.0852 52.3405 45.1623C52.7703 47.025 54.1592 48.1119 56.1098 48.1119C57.6093 48.1119 58.9699 47.1741 59.0892 46.0587L59.1406 45.5795L59.3172 45.9903C59.4578 46.3173 59.4607 46.5512 59.3306 47.1409C58.9288 48.9594 56.3527 50.428 53.5497 50.4365C53.0471 50.4381 52.7626 50.4962 52.7626 50.5969C52.7626 50.6841 52.9875 51.4386 53.262 52.2738C53.6865 53.564 53.771 54.0298 53.8253 55.3678C53.9063 57.3696 53.5944 58.6446 52.596 60.3929C51.6394 62.0677 50.8289 63.0158 47.9984 65.77C45.7182 67.9884 45.5203 68.2203 45.3167 68.909C45.0429 69.8362 45.0406 70.3211 45.3061 71.2151C45.6475 72.3647 47.067 73.6035 48.6562 74.139C48.905 74.2231 48.8032 74.2418 48.2829 74.2076C46.6799 74.1025 44.9853 72.8172 44.1958 71.1077C43.9876 70.6563 43.7794 70.2871 43.7331 70.2871C43.5933 70.2871 42.7648 71.73 42.3794 72.6444C42.0735 73.3704 42.0172 73.7058 42.0172 74.8043C42.0172 75.9747 42.0558 76.1742 42.4031 76.8007C42.6154 77.1834 42.9411 77.6608 43.1272 77.8615C43.5686 78.3376 43.3604 78.3268 42.6879 77.8389C41.8118 77.2035 40.7517 75.9441 39.9751 74.6159C39.2959 73.4549 38.3928 71.3995 38.179 70.5277C38.0067 69.8252 37.8054 70.2959 37.8803 71.227C37.945 72.0339 37.9319 72.1007 37.7564 71.8609C37.4571 71.4514 36.9276 69.6571 36.7353 68.4005C36.6404 67.7818 36.526 67.2756 36.4813 67.2756C36.3327 67.2756 35.3225 68.6283 34.5281 69.8905C33.6176 71.3375 33.0032 72.848 32.596 74.641L32.306 75.9194L32.6045 77.0744C32.7688 77.7099 33.4533 79.6304 34.1258 81.3422C35.4898 84.8149 35.7551 85.5972 36.2736 87.6715C37.5265 92.686 37.1993 97.7302 35.3253 102.291C34.6304 103.981 34.2525 104.758 30.9148 111.352C29.5619 114.025 28.156 116.859 27.7904 117.649C26.7177 119.968 24.5424 124.804 23.5412 127.094C21.9466 130.742 21.5198 131.611 21.3236 131.611C20.9853 131.611 20.9739 131.229 21.2841 130.282C21.8494 128.555 24.3929 122.257 25.9984 118.607C26.876 116.612 27.6917 114.729 27.8107 114.423L28.0272 113.866L27.5084 113.054C25.6614 110.163 21.1757 107.518 16.4883 106.557C14.6022 106.17 11.651 106.231 10.0548 106.69C7.60262 107.395 5.57731 108.799 4.73548 110.379C3.76346 112.203 3.74278 113.056 4.46005 121.756C4.6866 124.504 4.95421 127.763 5.0548 128.999C5.15542 130.235 5.20499 131.332 5.16515 131.436C5.00939 131.841 4.64636 131.534 4.48251 130.857C4.1993 129.688 2.27965 118.834 1.77085 115.526C0.142475 104.938 -0.00714421 103.302 0.000245789 96.1582C0.00558579 91.0624 0.0428163 90.0434 0.300836 87.9452C1.30694 79.7603 3.26684 74.7593 7.22128 70.2871C8.45296 68.8941 9.70822 67.7746 13.062 65.0775C14.2266 64.1407 15.5692 63.0107 16.0454 62.5659C17.1235 61.5595 18.4334 59.9426 18.923 59.0143C19.2571 58.3807 19.2927 58.1789 19.2764 57.0095C19.2553 55.5013 18.8819 54.2406 17.6614 51.5569C16.9487 49.9895 16.919 49.9492 16.0615 49.3854C15.1274 48.7713 13.7956 47.4112 13.3889 46.6562C13.2526 46.4027 13.1003 46.1955 13.0509 46.1955C13.0014 46.1955 12.5568 46.7405 12.063 47.406C10.3483 49.7178 7.369 52.5867 5.90132 53.3391C4.34345 54.1375 2.78666 53.1957 2.12524 51.0543C1.71089 49.7127 1.53129 47.3523 1.70404 45.52C2.04529 41.902 3.11872 38.609 6.01303 32.3019C7.7138 28.5958 7.93172 28.0261 7.93241 27.2858C7.93323 26.5328 7.71969 26.2477 6.63269 25.5507C5.4589 24.7978 4.39697 23.6274 3.8096 22.4389C3.34665 21.5022 3.2844 21.2516 3.23538 20.1305C3.20363 19.4053 3.27754 18.1224 3.41006 17.1005C3.53654 16.1257 3.69451 13.8498 3.76116 12.043C3.8927 8.47974 4.01027 7.79517 4.75807 6.23455C5.04444 5.63705 5.51244 5.00794 6.15415 4.35816C6.99355 3.50825 7.34353 3.27308 8.83886 2.55471C9.78445 2.10039 10.9224 1.62006 11.3674 1.48728C12.3816 1.18463 14.3672 1.18203 15.314 1.48208L15.9877 1.69549L16.4472 1.29201ZM12.3831 3.07766C12.1994 2.97938 11.7391 2.78187 11.36 2.63868L10.6708 2.37847L11.4813 2.45785C12.9276 2.59967 14.3267 3.44657 14.7817 4.45554C14.915 4.75134 15.0709 4.99338 15.1281 4.99338C15.2358 4.99338 15.7497 4.40273 16.0354 3.95086C16.1592 3.75526 16.2004 3.74253 16.206 3.89831C16.2194 4.26131 15.6924 4.97339 15.1618 5.30917L14.646 5.63549L14.4232 5.14341C14.1916 4.63172 12.9636 3.38836 12.3831 3.07766ZM9.31852 4.14947C9.0557 4.13181 8.87105 4.06803 8.90827 4.0078C9.03693 3.79945 10.5254 3.90048 11.0871 4.15565C11.6758 4.42297 12.3818 5.1527 12.3818 5.49366C12.3818 5.63109 12.1928 5.53735 11.8109 5.21046C11.1866 4.67594 10.0684 4.19999 9.31852 4.14947ZM5.93501 7.07796C6.20426 6.55547 6.8969 5.83219 7.38558 5.56307C7.85318 5.30559 8.97699 5.3743 9.50729 5.69271C10.0411 6.01314 10.6024 6.49799 10.6024 6.63871C10.6024 6.68922 10.2549 6.55522 9.83019 6.34098C8.92211 5.88296 8.57949 5.86012 7.8934 6.21203C6.68267 6.83295 6.31692 7.7409 6.01782 10.8683C5.74623 13.7075 5.5787 14.4683 4.65869 17.0392C3.87682 19.2242 3.80795 19.1232 4.37905 16.6285C4.8747 14.4636 5.10166 12.9094 5.19857 11.0163C5.2952 9.13084 5.5334 7.85712 5.93501 7.07796ZM25.0843 9.23623C23.9598 7.62769 22.1513 6.0924 20.8686 5.65725C20.6295 5.57623 20.7578 5.55815 21.2948 5.59771C22.8061 5.70874 24.3834 6.88484 26.5445 9.51205C30.2608 14.0303 31.3012 15.0839 33.458 16.515C34.8762 17.4561 37.7451 18.83 39.5533 19.4342C41.3342 20.0291 44.3442 20.8172 45.3424 20.9496C45.7704 21.0064 46.0159 21.0986 45.9637 21.1832C45.8264 21.4052 41.6923 21.1984 39.827 20.8762C34.149 19.8954 30.9724 17.7019 27.2334 12.1798C26.7239 11.4269 26.1717 10.657 26.0067 10.4688C25.8416 10.2805 25.4266 9.72586 25.0843 9.23623ZM13.8191 7.08056C13.3213 7.00377 13.3027 6.98692 13.617368 15.3261C15.1824 15.0836 15.3713 14.9091 15.2832 14.8211C15.1954 14.7332 15.0452 14.7423 14.8488 14.8474C14.6837 14.9358 14.5227 14.9822 14.4911 14.9507C14.4596 14.9191 14.741 14.7261 15.1165 14.5216C15.6871 14.2111 15.9463 14.1547 16.6926 14.179ZM15.8164 14.7016C15.642 14.8119 15.2564 14.762 15.2564 14.6291C15.2564 14.5995 15.4259 14.5762 15.6329 14.5773C15.9068 14.5788 15.9567 14.6126 15.8164 14.7016ZM23.9174 17.313C23.715 17.313 23.7784 17.1376 24.1283 16.7304C24.2418 16.5981 24.3661 16.5212 24.4043 16.5594C24.525 16.6802 24.1162 17.313 23.9174 17.313ZM10.5028 19.3655C10.0165 19.3663 9.54903 18.8534 9.69329 18.4775C9.80033 18.1985 10.045 18.2166 10.1445 18.5107C10.189 18.6425 10.3873 18.8885 10.585 19.0575L10.9446 19.3648L10.5028 19.3655ZM27.5524 21.9058C26.8097 20.7992 25.6596 18.7004 25.6596 18.4521C25.6596 18.3178 25.7964 18.4789 26.4686 19.4045C28.229 21.8286 31.1107 24.7804 32.9559 26.0495C34.7037 27.2518 35.9806 27.769 38.5952 28.3337C43.7067 29.4381 45.4506 30.0314 47.4095 31.334C49.7027 32.8584 51.0109 35.1786 50.8019 37.3508C50.6652 38.7719 50.3942 39.3158 49.1454 40.6773C47.8395 42.1009 47.3665 42.8377 46.9976 44.0225C46.292 46.2898 46.9727 48.5879 49.2087 51.4879C51.0701 53.902 51.8369 55.2794 52.0927 56.6673C52.5595 59.1991 51.4361 61.3461 47.7604 64.9486C46.0668 66.6082 46.1678 66.3237 48.1974 63.7168C49.7405 61.7343 50.3578 60.7927 50.9446 59.523C51.2467 58.8698 51.3148 58.5295 51.3102 57.6937C51.3027 56.3557 50.9328 55.5346 49.5187 53.72C48.9313 52.966 48.1269 51.935 47.7313 51.4283C46.245 49.5262 45.508 47.6124 45.508 45.6561C45.508 44.6919 45.6265 43.9924 46.1216 42.0374C46.8074 39.3285 46.9995 37.5809 46.7547 36.2766C46.5542 35.2095 45.9221 33.8764 45.217 33.0342C44.9062 32.663 44.6838 32.3273 44.7229 32.2885C44.7619 32.2491 45.217 32.6368 45.7342 33.1494C47.5383 34.9375 48.1221 36.9005 47.6498 39.5909C47.5542 40.1367 47.5131 40.5832 47.5588 40.5832C47.7411 40.5832 48.6719 39.2117 49.0771 38.3459C49.4282 37.5956 49.5102 37.2416 49.5225 36.4228C49.5364 35.5277 49.484 35.3108 49.0375 34.4069C48.4917 33.3028 47.5303 32.2419 46.384 31.4787C44.2931 30.087 39.9219 28.7155 36.1333 28.2623C35.3816 28.1726 34.4534 27.9816 34.0703 27.8384C32.083 27.0947 29.3894 24.6432 27.5524 21.9058ZM5.67452 21.7444L5.68534 20.5211C5.69123 19.8483 5.72969 19.3901 5.77062 19.5031C5.81155 19.616 5.9858 19.9949 6.15786 20.3449L6.4708 20.9816L6.07273 21.3629L5.67452 21.7444ZM22.6555 23.8047C23.0136 23.0461 23.4402 21.9777 23.6031 21.4303C23.7661 20.8829 23.9198 20.4563 23.9444 20.4824C23.9692 20.5083 24.1492 21.1952 24.3446 22.0087C25.4109 26.449 27.6308 29.1098 30.9279 29.8998C31.3032 29.9898 31.6811 30.1219 31.7675 30.1936C31.8714 30.28 32.4958 30.1088 33.6174 29.6864C35.7464 28.8846 36.5674 28.8278 37.7361 29.4013C39.5214 30.2777 40.073 31.4782 41.3967 37.3665C42.5668 42.5723 44.8637 51.7149 45.5742 53.9961C45.9143 55.0866 46.1922 56.1197 46.1922 56.2917C46.1922 56.6765 45.5755 57.3002 42.1278 60.4011C37.7548 64.3345 34.1878 68.3015 33.1258 70.4133C32.8767 70.9087 32.5022 71.795 32.2937 72.3832C31.821 73.7171 31.6876 73.5662 31.6845 71.6948C31.6822 70.0125 32.012 67.5136 32.3852 66.3859C33.0426 64.4006 35.2268 60.3906 36.9916 57.9292C38.1286 56.3439 39.7188 54.6835 40.1908 54.5891C40.7278 54.4817 40.7779 54.3431 40.3746 54.0788C39.7846 53.6925 38.3121 50.2167 37.8612 48.1466C37.7448 47.6111 37.7674 47.5245 38.1492 47.0515C39.5309 45.3394 39.9311 43.0181 39.1877 41.031C38.9018 40.2672 37.7846 38.9228 37.172 38.6056C36.9762 38.504 36.4769 37.985 36.0628 37.4521C35.08 36.1874 34.8446 36.1416 35.3726 37.3174L35.6402 37.9141L34.4446 37.983C32.0043 38.1236 30.513 39.3279 28.894 42.4654C28.3858 43.4505 27.8799 44.2908 27.7699 44.333C27.6416 44.3821 27.2655 44.079 26.7221 43.4888C25.2313 41.8695 24.2478 40.9724 23.224 40.2978C21.0185 38.8451 18.9287 38.4832 16.8325 39.1909L16.0777 39.4457V39.0069C16.0777 38.1277 15.9051 37.2981 15.7223 37.2981C15.5363 37.2981 15.394 37.7269 15.1163 39.1241C14.9866 39.7765 14.8344 40.0595 14.2892 40.6616C13.5066 41.5258 13.0342 42.4099 12.7949 43.4577C12.4875 44.805 11.0837 47.1263 9.44868 48.9915C8.46036 50.119 5.9844 52.2774 5.31079 52.5984C4.85756 52.8146 4.80816 52.8126 4.33002 52.5563C3.17471 51.9378 2.71686 49.9874 2.84017 46.2096C2.95544 42.676 3.67245 40.0472 5.92419 34.9025C7.54817 31.1918 7.93789 30.2785 8.35963 29.1929C8.61438 28.5368 8.82283 27.7613 8.82283 27.4693C8.82283 26.6788 8.10735 25.3826 7.02898 24.2196C6.22753 23.3553 6.08515 23.1278 6.08515 22.7122C6.08515 22.1489 6.25885 21.7609 6.56355 21.644C6.73588 21.5779 6.74947 21.6118 6.63584 21.8243C6.42859 22.2115 6.4691 22.6477 6.77503 23.322C7.12109 24.0848 7.23114 23.9877 7.02636 23.1006C6.84513 22.3157 6.9393 21.7586 7.28452 21.5739C7.41539 21.5038 7.81428 21.4028 8.17098 21.3493C8.78601 21.257 8.84447 21.2768 9.30029 21.7327C9.79676 22.2292 9.92776 22.6515 9.5854 22.6515C9.47795 22.6515 9.29753 22.5591 9.1846 22.4461C9.07167 22.3332 8.89003 22.2408 8.78093 22.2408C8.67183 22.2408 8.50592 22.3332 8.41217 22.4461C8.27706 22.609 8.27678 22.6515 8.41136 22.6515C8.51362 22.6515 8.55249 22.7603 8.50936 22.9252C8.44489 23.1716 8.50526 23.199 9.11247 23.199C9.71215 23.199 9.8548 23.2614 10.3966 23.7608C11.7877 25.0431 12.1639 26.0729 11.9753 28.0831C11.8541 29.3739 11.8142 29.4831 10.6237 31.7695C9.93572 33.0908 9.32903 35.3655 9.11289 37.4349C9.03035 38.2254 8.83735 40.2752 8.68404 41.9899C8.5306 43.7045 8.279 45.8505 8.12473 46.7592C7.97031 47.6674 7.87874 48.4455 7.92118 48.4877C8.15004 48.7168 9.05649 45.6633 9.3534 43.6631C9.4317 43.1361 9.5924 41.5346 9.71053 40.1043C10.1862 34.3468 10.8151 32.4666 12.5661 31.5659C13.3748 31.1499 14.9459 31.0312 16.4884 31.2697C17.053 31.3571 17.9462 31.4615 18.4732 31.5019C19.3247 31.5672 19.4847 31.5391 19.9104 31.2502C20.6619 30.7404 21.1356 29.7145 21.3053 28.2286C21.4834 26.6688 21.8131 25.5887 22.6555 23.8047ZM39.4849 25.868C34.1821 24.2479 30.1927 22.428 28.9287 21.0522C28.7907 20.902 28.6984 20.8042 28.7149 20.7802C28.7444 20.7368 29.13 20.9358 30.2452 21.506C32.3074 22.5601 34.249 23.2187 39.6813 24.7059C46.4005 26.5456 47.7033 27.0243 49.5464 28.3312C50.7863 29.2104 52.3137 30.889 52.7798 31.8846C53.4425 33.3011 53.6914 34.8339 53.4932 36.2807C53.424 36.784 53.377 36.8794 53.2973 36.6761C53.2397 36.529 53.1883 36.2344 53.1829 36.0218C53.1669 35.3799 52.5289 33.6702 51.9896 32.824C50.9012 31.1158 49.3001 29.7366 47.1871 28.6867C45.9927 28.0932 42.073 26.6587 39.4849 25.868ZM13.0004 21.9081C12.7313 21.8576 12.5472 21.7578 12.5914 21.6862C12.7009 21.5091 13.4392 21.5214 13.551 21.7024C13.6977 21.9398 13.5211 22.0057 13.0004 21.9081ZM13.0642 23.7465C13.1974 23.7465 13.3897 23.6463 13.4914 23.5238C13.6465 23.3368 13.8527 23.3156 14.7743 23.3917C16.2195 23.5112 16.35 23.5289 16.3827 23.6096C16.398 23.6473 16.2655 24.0656 16.0884 24.5392C15.3532 26.505 14.055 26.8944 13.0594 25.4477C12.5196 24.6629 12.522 23.7465 13.0642 23.7465ZM14.1956 24.9674C13.84 24.957 13.8494 24.9419 14.3667 24.6972C15.0708 24.364 15.1847 24.3658 14.8458 24.7047C14.6952 24.8552 14.4025 24.9735 14.1956 24.9674ZM27.3023 31.6173C27.3144 31.4682 27.7766 31.2844 29.3555 30.8008C29.9202 30.6278 30.4038 30.5057 30.43 30.5294C30.5673 30.6527 30.2064 30.872 29.1033 31.3345C27.9501 31.818 27.2776 31.9237 27.3023 31.6173ZM23.2622 32.3144C22.628 32.4738 20.1842 32.1782 20.1842 31.9425C20.1842 31.8766 20.8851 31.8227 21.7417 31.8227C22.9394 31.8227 23.3374 31.8687 23.4648 32.0224C23.6016 32.1872 23.5662 32.2383 23.2622 32.3144ZM34.6932 55.7773C34.8595 55.3634 35.0495 54.8861 35.1153 54.7167C35.3682 54.0645 35.4132 54.485 35.3199 56.6328L35.2235 58.8572L34.0829 60.7736C33.4557 61.8276 32.8086 62.9579 32.6451 63.2851C32.4816 63.6124 32.3174 63.8494 32.2799 63.8121C32.0647 63.5967 33.5829 58.5415 34.6932 55.7773ZM46.6441 60.4042C46.8123 59.925 47.1364 58.1369 47.2344 57.1462C47.3513 55.9665 47.5264 56.2369 47.5447 57.6253C47.5555 58.4587 47.0637 60.1767 46.7254 60.4875C46.6035 60.5993 46.583 60.5782 46.6441 60.4042ZM40.8653 72.5657C40.6165 70.7779 41.0635 68.9622 42.1594 67.3098C42.4216 66.9147 42.6627 66.5913 42.6956 66.5913C42.7283 66.5913 42.6044 66.9201 42.4203 67.3221C41.7823 68.7159 41.2687 71.2904 41.2604 73.1375C41.255 74.2963 41.0684 74.0264 40.8653 72.5657Z" fill="#EE046C"/>
<path d="M78.7087 131.618V0H81.2963V131.618H78.7087Z" fill="#EE046C"/>
</svg>
